<mxfile host="app.diagrams.net" modified="2023-07-06T00:31:29.174Z" agent="Mozilla/5.0 (Windows NT 10.0; Win64; x64) AppleWebKit/537.36 (KHTML, like Gecko) Chrome/108.0.0.0 Safari/537.36" etag="LCkDjTk0cf1LmlOzzgb7" version="21.5.0" type="github" pages="2">
  <diagram id="6a731a19-8d31-9384-78a2-239565b7b9f0" name="Page-1">
    <mxGraphModel dx="993" dy="885" grid="1" gridSize="10" guides="1" tooltips="1" connect="1" arrows="1" fold="1" page="1" pageScale="1" pageWidth="1169" pageHeight="827" background="none" math="0" shadow="0">
      <root>
        <mxCell id="0" />
        <mxCell id="1" parent="0" />
        <mxCell id="2" value="開始" style="shape=mxgraph.flowchart.terminator;strokeWidth=2;gradientColor=none;gradientDirection=north;fontStyle=0;html=1;fontSize=15;" parent="1" vertex="1">
          <mxGeometry x="260" y="60" width="120" height="30" as="geometry" />
        </mxCell>
        <mxCell id="O8AwixYfn_km_ykKzb5U-57" value="" style="edgeStyle=none;rounded=0;orthogonalLoop=1;jettySize=auto;html=1;fontSize=15;" edge="1" parent="1" source="3" target="O8AwixYfn_km_ykKzb5U-56">
          <mxGeometry relative="1" as="geometry" />
        </mxCell>
        <mxCell id="3" value="等待玻璃&lt;br style=&quot;font-size: 15px;&quot;&gt;放到檢測平台上" style="shape=mxgraph.flowchart.data;strokeWidth=2;gradientColor=none;gradientDirection=north;fontStyle=0;html=1;fontSize=15;" parent="1" vertex="1">
          <mxGeometry x="240.5" y="130" width="159" height="80" as="geometry" />
        </mxCell>
        <mxCell id="5" value="AMR移動&lt;br style=&quot;font-size: 15px;&quot;&gt;待檢測機台位置" style="shape=mxgraph.flowchart.data;strokeWidth=2;gradientColor=none;gradientDirection=north;fontStyle=0;html=1;fontSize=15;" parent="1" vertex="1">
          <mxGeometry x="240.5" y="360" width="159" height="80" as="geometry" />
        </mxCell>
        <mxCell id="O8AwixYfn_km_ykKzb5U-72" style="edgeStyle=elbowEdgeStyle;rounded=0;orthogonalLoop=1;jettySize=auto;html=1;exitX=0;exitY=0.5;exitDx=0;exitDy=0;exitPerimeter=0;entryX=0.5;entryY=0.91;entryDx=0;entryDy=0;entryPerimeter=0;fontSize=15;" edge="1" parent="1" source="6" target="51">
          <mxGeometry relative="1" as="geometry">
            <Array as="points">
              <mxPoint x="200" y="540" />
            </Array>
          </mxGeometry>
        </mxCell>
        <mxCell id="O8AwixYfn_km_ykKzb5U-73" style="edgeStyle=elbowEdgeStyle;rounded=0;orthogonalLoop=1;jettySize=auto;html=1;exitX=0.5;exitY=1;exitDx=0;exitDy=0;exitPerimeter=0;entryX=0.5;entryY=0;entryDx=0;entryDy=0;entryPerimeter=0;fontSize=15;" edge="1" parent="1" source="6">
          <mxGeometry relative="1" as="geometry">
            <mxPoint x="319.5" y="640" as="targetPoint" />
          </mxGeometry>
        </mxCell>
        <mxCell id="6" value="是否抵達" style="shape=mxgraph.flowchart.decision;strokeWidth=2;gradientColor=none;gradientDirection=north;fontStyle=0;html=1;fontSize=15;" parent="1" vertex="1">
          <mxGeometry x="271" y="530" width="98" height="57" as="geometry" />
        </mxCell>
        <mxCell id="7" style="fontStyle=1;strokeColor=#003366;strokeWidth=1;html=1;fontSize=15;" parent="1" source="2" target="3" edge="1">
          <mxGeometry relative="1" as="geometry" />
        </mxCell>
        <mxCell id="9" style="entryX=0.5;entryY=0;entryPerimeter=0;fontStyle=1;strokeColor=#003366;strokeWidth=1;html=1;fontSize=15;" parent="1" source="5" target="6" edge="1">
          <mxGeometry relative="1" as="geometry" />
        </mxCell>
        <mxCell id="11" value="no" style="text;fontStyle=0;html=1;strokeColor=none;gradientColor=none;fillColor=none;strokeWidth=2;fontSize=15;" parent="1" vertex="1">
          <mxGeometry x="250" y="530" width="40" height="26" as="geometry" />
        </mxCell>
        <mxCell id="14" value="Yes" style="text;fontStyle=0;html=1;strokeColor=none;gradientColor=none;fillColor=none;strokeWidth=2;align=center;fontSize=15;" parent="1" vertex="1">
          <mxGeometry x="290" y="587" width="40" height="26" as="geometry" />
        </mxCell>
        <mxCell id="45" value="" style="edgeStyle=elbowEdgeStyle;elbow=horizontal;exitX=1;exitY=0.5;exitPerimeter=0;entryX=0.905;entryY=0.5;entryPerimeter=0;fontStyle=1;strokeColor=#003366;strokeWidth=1;html=1;" parent="1" target="34" edge="1">
          <mxGeometry width="100" height="100" as="geometry">
            <mxPoint x="380.5" y="1339.25" as="sourcePoint" />
            <mxPoint x="100" y="220" as="targetPoint" />
            <Array as="points">
              <mxPoint x="950" y="1540" />
            </Array>
          </mxGeometry>
        </mxCell>
        <mxCell id="O8AwixYfn_km_ykKzb5U-68" style="edgeStyle=elbowEdgeStyle;rounded=0;orthogonalLoop=1;jettySize=auto;html=1;exitX=0.5;exitY=0.09;exitDx=0;exitDy=0;exitPerimeter=0;entryX=0.095;entryY=0.5;entryDx=0;entryDy=0;entryPerimeter=0;fontSize=15;" edge="1" parent="1" source="51" target="5">
          <mxGeometry relative="1" as="geometry">
            <Array as="points">
              <mxPoint x="200" y="440" />
            </Array>
          </mxGeometry>
        </mxCell>
        <mxCell id="51" value="找尋十字磁條" style="shape=mxgraph.flowchart.paper_tape;strokeWidth=2;gradientColor=none;gradientDirection=north;fontStyle=0;html=1;fontSize=15;" parent="1" vertex="1">
          <mxGeometry x="125" y="449" width="150" height="81" as="geometry" />
        </mxCell>
        <mxCell id="O8AwixYfn_km_ykKzb5U-58" style="edgeStyle=none;rounded=0;orthogonalLoop=1;jettySize=auto;html=1;exitX=0.5;exitY=1;exitDx=0;exitDy=0;exitPerimeter=0;fontSize=15;" edge="1" parent="1" source="O8AwixYfn_km_ykKzb5U-56" target="5">
          <mxGeometry relative="1" as="geometry" />
        </mxCell>
        <mxCell id="O8AwixYfn_km_ykKzb5U-56" value="確認玻璃產品別&lt;br style=&quot;border-color: var(--border-color); font-size: 15px;&quot;&gt;切換RECIPE" style="shape=mxgraph.flowchart.data;strokeWidth=2;gradientColor=none;gradientDirection=north;fontStyle=0;html=1;fontSize=15;" vertex="1" parent="1">
          <mxGeometry x="242" y="240" width="159" height="80" as="geometry" />
        </mxCell>
        <mxCell id="O8AwixYfn_km_ykKzb5U-75" style="edgeStyle=elbowEdgeStyle;rounded=0;orthogonalLoop=1;jettySize=auto;html=1;exitX=0.5;exitY=1;exitDx=0;exitDy=0;exitPerimeter=0;entryX=0.5;entryY=0;entryDx=0;entryDy=0;entryPerimeter=0;fontSize=15;" edge="1" parent="1" target="O8AwixYfn_km_ykKzb5U-63">
          <mxGeometry relative="1" as="geometry">
            <mxPoint x="319.5" y="720" as="sourcePoint" />
          </mxGeometry>
        </mxCell>
        <mxCell id="O8AwixYfn_km_ykKzb5U-90" style="edgeStyle=elbowEdgeStyle;rounded=0;orthogonalLoop=1;jettySize=auto;elbow=vertical;html=1;exitX=0.5;exitY=1;exitDx=0;exitDy=0;exitPerimeter=0;" edge="1" parent="1" source="O8AwixYfn_km_ykKzb5U-63">
          <mxGeometry relative="1" as="geometry">
            <mxPoint x="421" y="475" as="targetPoint" />
            <mxPoint x="310" y="855" as="sourcePoint" />
            <Array as="points">
              <mxPoint x="380.5" y="885" />
            </Array>
          </mxGeometry>
        </mxCell>
        <mxCell id="O8AwixYfn_km_ykKzb5U-63" value="回饋定位點座標&lt;br style=&quot;font-size: 15px;&quot;&gt;進行手臂補正" style="shape=mxgraph.flowchart.data;strokeWidth=2;gradientColor=none;gradientDirection=north;fontStyle=0;html=1;fontSize=15;" vertex="1" parent="1">
          <mxGeometry x="240" y="760" width="159" height="80" as="geometry" />
        </mxCell>
        <mxCell id="O8AwixYfn_km_ykKzb5U-91" style="edgeStyle=elbowEdgeStyle;rounded=0;orthogonalLoop=1;jettySize=auto;elbow=vertical;html=1;entryX=0.5;entryY=0;entryDx=0;entryDy=0;entryPerimeter=0;" edge="1" parent="1" target="O8AwixYfn_km_ykKzb5U-77">
          <mxGeometry relative="1" as="geometry">
            <mxPoint x="530" y="470" as="targetPoint" />
            <mxPoint x="420" y="480" as="sourcePoint" />
            <Array as="points">
              <mxPoint x="480" y="480" />
            </Array>
          </mxGeometry>
        </mxCell>
        <mxCell id="O8AwixYfn_km_ykKzb5U-92" style="edgeStyle=elbowEdgeStyle;rounded=0;orthogonalLoop=1;jettySize=auto;elbow=vertical;html=1;exitX=0.5;exitY=1;exitDx=0;exitDy=0;exitPerimeter=0;entryX=0.5;entryY=0;entryDx=0;entryDy=0;" edge="1" parent="1" source="O8AwixYfn_km_ykKzb5U-77" target="O8AwixYfn_km_ykKzb5U-84">
          <mxGeometry relative="1" as="geometry" />
        </mxCell>
        <mxCell id="O8AwixYfn_km_ykKzb5U-77" value="尋找玻璃定位點" style="shape=mxgraph.flowchart.data;strokeWidth=2;gradientColor=none;gradientDirection=north;fontStyle=0;html=1;fontSize=15;" vertex="1" parent="1">
          <mxGeometry x="440" y="518.5" width="159" height="80" as="geometry" />
        </mxCell>
        <mxCell id="O8AwixYfn_km_ykKzb5U-81" value="&lt;font style=&quot;font-size: 14px;&quot;&gt;手臂移到相對座標&lt;/font&gt;&lt;br style=&quot;border-color: var(--border-color); font-size: 15px;&quot;&gt;&lt;font style=&quot;font-size: 14px;&quot;&gt;尋找定位點&lt;/font&gt;" style="verticalLabelPosition=middle;verticalAlign=middle;html=1;shape=process;whiteSpace=wrap;rounded=1;size=0.06250000000000036;arcSize=6;labelPosition=center;align=center;" vertex="1" parent="1">
          <mxGeometry x="245.5" y="640" width="149" height="80" as="geometry" />
        </mxCell>
        <mxCell id="O8AwixYfn_km_ykKzb5U-93" style="edgeStyle=elbowEdgeStyle;rounded=0;orthogonalLoop=1;jettySize=auto;elbow=vertical;html=1;exitX=0.5;exitY=1;exitDx=0;exitDy=0;entryX=0.5;entryY=0;entryDx=0;entryDy=0;entryPerimeter=0;" edge="1" parent="1" source="O8AwixYfn_km_ykKzb5U-84" target="O8AwixYfn_km_ykKzb5U-85">
          <mxGeometry relative="1" as="geometry" />
        </mxCell>
        <mxCell id="O8AwixYfn_km_ykKzb5U-84" value="&lt;font style=&quot;font-size: 14px;&quot;&gt;開始檢測&lt;/font&gt;&lt;br style=&quot;border-color: var(--border-color); font-size: 15px;&quot;&gt;&lt;font style=&quot;font-size: 14px;&quot;&gt;玻璃異常點&lt;/font&gt;" style="verticalLabelPosition=middle;verticalAlign=middle;html=1;shape=process;whiteSpace=wrap;rounded=1;size=0.06250000000000036;arcSize=6;labelPosition=center;align=center;" vertex="1" parent="1">
          <mxGeometry x="445" y="640" width="149" height="80" as="geometry" />
        </mxCell>
        <mxCell id="O8AwixYfn_km_ykKzb5U-94" style="edgeStyle=elbowEdgeStyle;rounded=0;orthogonalLoop=1;jettySize=auto;elbow=vertical;html=1;exitX=0.5;exitY=1;exitDx=0;exitDy=0;exitPerimeter=0;entryX=0.905;entryY=0.5;entryDx=0;entryDy=0;entryPerimeter=0;" edge="1" parent="1" source="O8AwixYfn_km_ykKzb5U-85" target="5">
          <mxGeometry relative="1" as="geometry">
            <Array as="points">
              <mxPoint x="620" y="410" />
            </Array>
          </mxGeometry>
        </mxCell>
        <mxCell id="O8AwixYfn_km_ykKzb5U-85" value="異常資料輸出" style="strokeWidth=2;html=1;shape=mxgraph.flowchart.database;whiteSpace=wrap;" vertex="1" parent="1">
          <mxGeometry x="442" y="760" width="155" height="80" as="geometry" />
        </mxCell>
      </root>
    </mxGraphModel>
  </diagram>
  <diagram id="nbEfnip1J8WoBB2lyJiG" name="第 2 页">
    <mxGraphModel dx="934" dy="833" grid="1" gridSize="10" guides="1" tooltips="1" connect="1" arrows="1" fold="1" page="1" pageScale="1" pageWidth="827" pageHeight="1169" math="0" shadow="0">
      <root>
        <mxCell id="0" />
        <mxCell id="1" parent="0" />
        <mxCell id="KLRto7eONF0k6jf2fVvs-5" value="" style="edgeStyle=elbowEdgeStyle;rounded=0;orthogonalLoop=1;jettySize=auto;elbow=vertical;html=1;" edge="1" parent="1" source="pO1DXBASPcB8OMrMEnei-1" target="KLRto7eONF0k6jf2fVvs-4">
          <mxGeometry relative="1" as="geometry" />
        </mxCell>
        <mxCell id="pO1DXBASPcB8OMrMEnei-1" value="開始" style="shape=mxgraph.flowchart.terminator;strokeWidth=2;gradientColor=none;gradientDirection=north;fontStyle=0;html=1;fontSize=15;" vertex="1" parent="1">
          <mxGeometry x="340" y="130" width="120" height="30" as="geometry" />
        </mxCell>
        <mxCell id="KLRto7eONF0k6jf2fVvs-10" style="edgeStyle=orthogonalEdgeStyle;rounded=0;orthogonalLoop=1;jettySize=auto;html=1;exitX=0;exitY=0.5;exitDx=0;exitDy=0;elbow=vertical;" edge="1" parent="1" source="KLRto7eONF0k6jf2fVvs-4">
          <mxGeometry relative="1" as="geometry">
            <mxPoint x="400" y="200" as="targetPoint" />
            <Array as="points">
              <mxPoint x="320" y="280" />
              <mxPoint x="320" y="200" />
              <mxPoint x="400" y="200" />
            </Array>
          </mxGeometry>
        </mxCell>
        <mxCell id="TQlQquP6j54kXQT7TgNZ-2" style="edgeStyle=orthogonalEdgeStyle;rounded=0;orthogonalLoop=1;jettySize=auto;html=1;exitX=0.5;exitY=1;exitDx=0;exitDy=0;entryX=0.5;entryY=0;entryDx=0;entryDy=0;elbow=vertical;" edge="1" parent="1" source="KLRto7eONF0k6jf2fVvs-4" target="TQlQquP6j54kXQT7TgNZ-1">
          <mxGeometry relative="1" as="geometry" />
        </mxCell>
        <mxCell id="KLRto7eONF0k6jf2fVvs-4" value="等待&lt;br style=&quot;border-color: var(--border-color);&quot;&gt;&lt;span style=&quot;border-color: var(--border-color); font-family: &amp;quot;Comic Sans MS&amp;quot;; font-size: 14px;&quot;&gt;GPIO觸發&lt;/span&gt;" style="rhombus;whiteSpace=wrap;html=1;fontSize=15;strokeWidth=2;gradientColor=none;gradientDirection=north;fontStyle=0;" vertex="1" parent="1">
          <mxGeometry x="340" y="240" width="120" height="80" as="geometry" />
        </mxCell>
        <mxCell id="O4HJtXjEO4nye1pz8zJJ-1" value="no" style="text;fontStyle=0;html=1;strokeColor=none;gradientColor=none;fillColor=none;strokeWidth=2;fontSize=15;" vertex="1" parent="1">
          <mxGeometry x="300" y="270" width="40" height="26" as="geometry" />
        </mxCell>
        <mxCell id="O4HJtXjEO4nye1pz8zJJ-2" value="Yes" style="text;fontStyle=0;html=1;strokeColor=none;gradientColor=none;fillColor=none;strokeWidth=2;align=center;fontSize=15;" vertex="1" parent="1">
          <mxGeometry x="340" y="320" width="40" height="26" as="geometry" />
        </mxCell>
        <mxCell id="O4HJtXjEO4nye1pz8zJJ-7" style="edgeStyle=orthogonalEdgeStyle;rounded=0;orthogonalLoop=1;jettySize=auto;html=1;exitX=0.5;exitY=1;exitDx=0;exitDy=0;entryX=0.5;entryY=0;entryDx=0;entryDy=0;entryPerimeter=0;elbow=vertical;" edge="1" parent="1" source="O4HJtXjEO4nye1pz8zJJ-4" target="O4HJtXjEO4nye1pz8zJJ-6">
          <mxGeometry relative="1" as="geometry" />
        </mxCell>
        <mxCell id="O4HJtXjEO4nye1pz8zJJ-9" style="edgeStyle=orthogonalEdgeStyle;rounded=0;orthogonalLoop=1;jettySize=auto;html=1;exitX=0.5;exitY=1;exitDx=0;exitDy=0;entryX=0.5;entryY=0;entryDx=0;entryDy=0;entryPerimeter=0;elbow=vertical;" edge="1" parent="1" source="O4HJtXjEO4nye1pz8zJJ-4" target="O4HJtXjEO4nye1pz8zJJ-8">
          <mxGeometry relative="1" as="geometry" />
        </mxCell>
        <mxCell id="O4HJtXjEO4nye1pz8zJJ-4" value="&lt;span style=&quot;color: rgb(0, 0, 0); font-family: Helvetica; font-size: 15px; font-style: normal; font-variant-ligatures: normal; font-variant-caps: normal; font-weight: 400; letter-spacing: normal; orphans: 2; text-align: center; text-indent: 0px; text-transform: none; widows: 2; word-spacing: 0px; -webkit-text-stroke-width: 0px; background-color: rgb(251, 251, 251); text-decoration-thickness: initial; text-decoration-style: initial; text-decoration-color: initial; float: none; display: inline !important;&quot;&gt;透過閥值超&lt;/span&gt;&lt;span style=&quot;border-color: var(--border-color); color: rgb(0, 0, 0); font-style: normal; font-variant-ligatures: normal; font-variant-caps: normal; font-weight: 400; letter-spacing: normal; orphans: 2; text-align: center; text-indent: 0px; text-transform: none; widows: 2; word-spacing: 0px; -webkit-text-stroke-width: 0px; background-color: initial; text-decoration-thickness: initial; text-decoration-style: initial; text-decoration-color: initial; font-size: 12pt; font-family: &amp;quot;Noto Sans TC&amp;quot;;&quot;&gt;標&lt;/span&gt;&lt;span style=&quot;border-color: var(--border-color); color: rgb(0, 0, 0); font-style: normal; font-variant-ligatures: normal; font-variant-caps: normal; font-weight: 400; letter-spacing: normal; orphans: 2; text-align: center; text-indent: 0px; text-transform: none; widows: 2; word-spacing: 0px; -webkit-text-stroke-width: 0px; background-color: initial; text-decoration-thickness: initial; text-decoration-style: initial; text-decoration-color: initial; font-size: 12pt; font-family: &amp;quot;Mabry Pro&amp;quot;;&quot;&gt;v2&lt;br style=&quot;border-color: var(--border-color);&quot;&gt;計算顆粒數&lt;/span&gt;" style="rounded=1;whiteSpace=wrap;html=1;absoluteArcSize=1;arcSize=14;strokeWidth=2;" vertex="1" parent="1">
          <mxGeometry x="340" y="481" width="120" height="80" as="geometry" />
        </mxCell>
        <mxCell id="O4HJtXjEO4nye1pz8zJJ-6" value="&lt;span style=&quot;color: rgb(0, 0, 0); font-family: Helvetica; font-size: 14px; font-style: normal; font-variant-ligatures: normal; font-variant-caps: normal; font-weight: 400; letter-spacing: normal; orphans: 2; text-align: center; text-indent: 0px; text-transform: none; widows: 2; word-spacing: 0px; -webkit-text-stroke-width: 0px; background-color: rgb(251, 251, 251); text-decoration-thickness: initial; text-decoration-style: initial; text-decoration-color: initial; float: none; display: inline !important;&quot;&gt;&lt;br&gt;Save *.CSV&lt;/span&gt;&lt;br style=&quot;border-color: var(--border-color); color: rgb(0, 0, 0); font-family: Helvetica; font-size: 14px; font-style: normal; font-variant-ligatures: normal; font-variant-caps: normal; font-weight: 400; letter-spacing: normal; orphans: 2; text-align: center; text-indent: 0px; text-transform: none; widows: 2; word-spacing: 0px; -webkit-text-stroke-width: 0px; background-color: rgb(251, 251, 251); text-decoration-thickness: initial; text-decoration-style: initial; text-decoration-color: initial;&quot;&gt;&lt;span style=&quot;color: rgb(0, 0, 0); font-family: Helvetica; font-size: 14px; font-style: normal; font-variant-ligatures: normal; font-variant-caps: normal; font-weight: 400; letter-spacing: normal; orphans: 2; text-align: center; text-indent: 0px; text-transform: none; widows: 2; word-spacing: 0px; -webkit-text-stroke-width: 0px; background-color: rgb(251, 251, 251); text-decoration-thickness: initial; text-decoration-style: initial; text-decoration-color: initial; float: none; display: inline !important;&quot;&gt;保留30天&lt;/span&gt;" style="strokeWidth=2;html=1;shape=mxgraph.flowchart.database;whiteSpace=wrap;" vertex="1" parent="1">
          <mxGeometry x="270" y="631" width="120" height="60" as="geometry" />
        </mxCell>
        <mxCell id="O4HJtXjEO4nye1pz8zJJ-8" value="&lt;br style=&quot;font-size: 14px;&quot;&gt;Save *.JPG&lt;br style=&quot;font-size: 14px;&quot;&gt;保留7天" style="strokeWidth=2;html=1;shape=mxgraph.flowchart.database;whiteSpace=wrap;fontSize=14;" vertex="1" parent="1">
          <mxGeometry x="410" y="631" width="120" height="60" as="geometry" />
        </mxCell>
        <mxCell id="TQlQquP6j54kXQT7TgNZ-3" style="edgeStyle=orthogonalEdgeStyle;rounded=0;orthogonalLoop=1;jettySize=auto;html=1;exitX=0.5;exitY=1;exitDx=0;exitDy=0;entryX=0.5;entryY=0;entryDx=0;entryDy=0;elbow=vertical;" edge="1" parent="1" source="TQlQquP6j54kXQT7TgNZ-1" target="O4HJtXjEO4nye1pz8zJJ-4">
          <mxGeometry relative="1" as="geometry" />
        </mxCell>
        <mxCell id="TQlQquP6j54kXQT7TgNZ-1" value="&lt;span style=&quot;font-size: 14px;&quot;&gt;開啟雷射燈源&lt;/span&gt;" style="verticalLabelPosition=middle;verticalAlign=middle;html=1;shape=process;whiteSpace=wrap;rounded=1;size=0.06250000000000036;arcSize=6;labelPosition=center;align=center;" vertex="1" parent="1">
          <mxGeometry x="340" y="360" width="120" height="80" as="geometry" />
        </mxCell>
      </root>
    </mxGraphModel>
  </diagram>
</mxfile>
